<svg width="43" height="43" viewBox="0 0 43 43" fill="none" xmlns="http://www.w3.org/2000/svg">
<path d="M0 4.27586C0 1.91437 1.91437 0 4.27586 0H38.7241C41.0856 0 43 1.91437 43 4.27586V38.7241C43 41.0856 41.0856 43 38.7241 43H4.27586C1.91437 43 0 41.0856 0 38.7241V4.27586Z" fill="#FF6B00"/>
<path d="M16.0658 12.1181C16.1139 12.118 16.1619 12.1179 16.2114 12.1177C16.3726 12.1173 16.5338 12.1172 16.6949 12.1171C16.8104 12.1169 16.9259 12.1167 17.0414 12.1164C17.3881 12.1157 17.7349 12.1154 18.0816 12.1152C18.2451 12.115 18.4085 12.1149 18.572 12.1147C19.1159 12.1141 19.6597 12.1136 20.2035 12.1134C20.2383 12.1134 20.2731 12.1134 20.3089 12.1134C20.3438 12.1134 20.3787 12.1134 20.4146 12.1133C20.4852 12.1133 20.5559 12.1133 20.6265 12.1133C20.6791 12.1133 20.6791 12.1133 20.7327 12.1132C21.3001 12.113 21.8674 12.1122 22.4347 12.1111C23.0178 12.1099 23.6009 12.1093 24.184 12.1092C24.5111 12.1092 24.8382 12.1089 25.1654 12.108C25.4733 12.1072 25.7812 12.1071 26.0891 12.1075C26.2019 12.1076 26.3146 12.1074 26.4273 12.1069C27.5212 12.1025 28.3636 12.2591 29.1752 13.0606C29.8486 13.7838 30.0207 14.6265 30.0915 15.5786C30.099 15.6706 30.1066 15.7626 30.1143 15.8545C30.1313 16.0596 30.1478 16.2648 30.164 16.4699C30.1935 16.8419 30.2251 17.2137 30.2569 17.5855C30.2687 17.7229 30.2804 17.8603 30.2921 17.9977C30.295 18.0323 30.298 18.0669 30.301 18.1026C30.3497 18.6745 30.3971 19.2466 30.4447 19.8186C30.4694 20.1152 30.4943 20.4117 30.5192 20.7083C30.5435 20.9986 30.5678 21.2888 30.592 21.579C30.6062 21.7506 30.6206 21.9222 30.635 22.0937C30.6509 22.2829 30.6666 22.4722 30.6823 22.6614C30.687 22.7171 30.6917 22.7728 30.6966 22.8301C30.7177 23.0876 30.7341 23.3413 30.7285 23.5996C30.6963 23.5994 30.664 23.5992 30.6308 23.599C29.8429 23.5943 29.055 23.5924 28.267 23.5934C27.8859 23.5938 27.5049 23.5934 27.1238 23.5907C26.7913 23.5884 26.4589 23.5879 26.1264 23.5894C25.9506 23.5901 25.775 23.59 25.5992 23.5878C24.8414 23.5789 24.2365 23.5774 23.6327 24.0763C22.8777 24.6327 21.7742 24.7593 20.8727 24.6513C20.1277 24.5181 19.2654 24.1971 18.7168 23.6484C18.5992 23.6331 18.5992 23.6331 18.4604 23.6348C18.406 23.6343 18.3516 23.6338 18.2956 23.6332C18.2357 23.6331 18.1758 23.633 18.1141 23.6329C18.0512 23.6324 17.9883 23.6319 17.9235 23.6314C17.7508 23.63 17.5781 23.6293 17.4054 23.6287C17.225 23.6279 17.0446 23.6266 16.8643 23.6254C16.5225 23.6231 16.1808 23.6213 15.8391 23.6197C15.4502 23.6178 15.0612 23.6154 14.6722 23.6129C13.872 23.6079 13.0717 23.6035 12.2715 23.5996C12.3061 22.7531 12.3788 21.9095 12.4486 21.0654C12.4589 20.9414 12.4691 20.8174 12.4793 20.6934C12.5114 20.3035 12.5437 19.9136 12.5761 19.5238C12.6132 19.077 12.65 18.6302 12.6864 18.1834C12.7148 17.8355 12.7435 17.4876 12.7725 17.1397C12.7897 16.933 12.8068 16.7263 12.8235 16.5196C12.8393 16.3252 12.8554 16.1309 12.8719 15.9366C12.8778 15.866 12.8835 15.7953 12.8892 15.7247C12.973 14.6731 13.1608 13.6568 13.9669 12.9017C14.5891 12.3809 15.2568 12.1174 16.0658 12.1181Z" fill="white"/>
<path d="M12.125 25.6504C12.8848 25.6378 13.6446 25.6283 14.4045 25.6226C14.7575 25.6198 15.1103 25.6161 15.4632 25.6099C15.7713 25.6045 16.0794 25.601 16.3875 25.5999C16.5503 25.5992 16.7128 25.5973 16.8756 25.5936C17.7018 25.5757 18.2653 25.659 18.9561 26.1242C20.0122 26.7767 21.5712 26.8475 22.7468 26.5701C23.4351 26.3908 24.1477 26.1155 24.7414 25.7191C24.8839 25.6424 24.966 25.6323 25.1265 25.6328C25.1774 25.6326 25.2282 25.6324 25.2807 25.6322C25.3636 25.633 25.3636 25.633 25.4482 25.6338C25.5068 25.6337 25.5654 25.6337 25.6258 25.6337C25.7861 25.6338 25.9464 25.6345 26.1067 25.6355C26.2743 25.6365 26.442 25.6365 26.6097 25.6367C26.927 25.6372 27.2443 25.6384 27.5616 25.6398C27.923 25.6415 28.2843 25.6423 28.6456 25.643C29.3888 25.6446 30.1319 25.6471 30.875 25.6504C30.88 26.0212 30.8834 26.3921 30.8857 26.7629C30.8867 26.8888 30.888 27.0148 30.8897 27.1407C30.8921 27.3226 30.8932 27.5045 30.8941 27.6865C30.8951 27.742 30.8961 27.7974 30.8971 27.8546C30.8974 28.7201 30.5284 29.4305 29.9478 30.051C29.7358 30.2555 29.505 30.4071 29.2484 30.5485C29.2201 30.5644 29.1918 30.5803 29.1627 30.5967C28.7044 30.8364 28.2156 30.8969 27.7053 30.8936C27.622 30.8939 27.622 30.8939 27.537 30.8943C27.3526 30.8949 27.1682 30.8944 26.9838 30.894C26.8509 30.8941 26.7181 30.8944 26.5852 30.8947C26.2628 30.8954 25.9403 30.8952 25.6179 30.8948C25.3556 30.8945 25.0934 30.8944 24.8312 30.8946C24.7937 30.8946 24.7563 30.8947 24.7178 30.8947C24.6417 30.8947 24.5657 30.8948 24.4896 30.8948C23.7777 30.8952 23.0659 30.8948 22.354 30.894C21.7442 30.8933 21.1343 30.8934 20.5244 30.8941C19.815 30.8949 19.1055 30.8952 18.3961 30.8947C18.3203 30.8947 18.2446 30.8947 18.1688 30.8946C18.1316 30.8946 18.0943 30.8946 18.0559 30.8945C17.7942 30.8944 17.5325 30.8946 17.2708 30.895C16.9516 30.8954 16.6324 30.8953 16.3131 30.8945C16.1505 30.8941 15.9878 30.894 15.8252 30.8944C15.6483 30.8948 15.4716 30.8943 15.2947 30.8936C15.244 30.8939 15.1933 30.8943 15.1411 30.8946C14.2862 30.8878 13.5349 30.541 12.9351 29.9402C12.3534 29.2989 12.1079 28.5607 12.1155 27.7103C12.1156 27.6513 12.1157 27.5922 12.1159 27.5314C12.1164 27.3438 12.1177 27.1563 12.1189 26.9688C12.1194 26.8412 12.1198 26.7136 12.1202 26.586C12.1213 26.2741 12.1229 25.9622 12.125 25.6504Z" fill="white"/>
</svg>
