<svg width="43" height="43" viewBox="0 0 43 43" fill="none" xmlns="http://www.w3.org/2000/svg">
<path d="M0 4.27586C0 1.91437 1.91437 0 4.27586 0H38.7241C41.0856 0 43 1.91437 43 4.27586V38.7241C43 41.0856 41.0856 43 38.7241 43H4.27586C1.91437 43 0 41.0856 0 38.7241V4.27586Z" fill="#FF6B00"/>
<path d="M13.3859 13.0163C13.4303 13.0161 13.4303 13.0161 13.4756 13.0159C13.5752 13.0157 13.6748 13.0157 13.7743 13.0157C13.8463 13.0156 13.9182 13.0154 13.9902 13.0152C14.1882 13.0148 14.3863 13.0146 14.5843 13.0145C14.7978 13.0143 15.0113 13.0139 15.2247 13.0135C15.7404 13.0127 16.2561 13.0123 16.7719 13.0119C17.0147 13.0117 17.2575 13.0114 17.5003 13.0112C18.3074 13.0105 19.1145 13.0099 19.9216 13.0095C20.131 13.0095 20.3405 13.0094 20.55 13.0093C20.602 13.0093 20.6541 13.0092 20.7077 13.0092C21.5512 13.0089 22.3947 13.0078 23.2382 13.0064C24.104 13.0049 24.9699 13.0041 25.8357 13.004C26.3219 13.0039 26.8081 13.0035 27.2943 13.0024C27.7083 13.0015 28.1224 13.0011 28.5364 13.0016C28.7477 13.0018 28.9589 13.0017 29.1701 13.0008C29.3636 13.0001 29.5571 13.0001 29.7506 13.0008C29.8204 13.0009 29.8903 13.0007 29.9602 13.0002C30.4514 12.9968 30.8751 13.0359 31.2483 13.3815C31.5248 13.6864 31.6577 14.0434 31.6648 14.4515C31.6278 15.0091 31.33 15.3602 30.9567 15.7507C30.8434 15.8699 30.7386 15.9943 30.6351 16.122C30.5027 16.2851 30.3658 16.4417 30.2227 16.5957C30.043 16.7894 29.8744 16.9895 29.7077 17.1942C29.5819 17.3454 29.449 17.4894 29.3158 17.6342C29.2149 17.7467 29.1191 17.8621 29.0237 17.9792C28.8551 18.1859 28.677 18.3818 28.4954 18.5773C28.3547 18.7327 28.2231 18.8945 28.0909 19.0569C27.996 19.1708 27.8978 19.2805 27.7974 19.3897C27.6613 19.5377 27.5312 19.6888 27.4041 19.8445C27.2463 20.0379 27.0813 20.2227 26.9124 20.4065C26.8115 20.519 26.7156 20.6344 26.6203 20.7515C26.4516 20.9582 26.2736 21.1541 26.092 21.3496C25.9513 21.505 25.8196 21.6668 25.6874 21.8292C25.562 21.9799 25.4295 22.1234 25.2967 22.2678C25.1554 22.4254 25.0222 22.589 24.889 22.7534C24.804 22.8551 24.804 22.8551 24.7342 22.9059C24.6382 23.03 24.6552 23.1637 24.6568 23.3138C24.6567 23.3472 24.6565 23.3806 24.6563 23.415C24.656 23.4875 24.6561 23.5601 24.6563 23.6326C24.6567 23.7475 24.6563 23.8624 24.6556 23.9773C24.6539 24.304 24.6538 24.6307 24.6539 24.9574C24.6539 25.1572 24.6531 25.3571 24.6517 25.5569C24.6513 25.6699 24.6518 25.7829 24.6523 25.896C24.652 25.9656 24.6515 26.0352 24.651 26.1049C24.6514 26.1361 24.6519 26.1674 24.6523 26.1996C24.6492 26.4184 24.5915 26.5409 24.4544 26.7103C24.363 26.7914 24.363 26.7914 24.2578 26.8641C24.2152 26.8937 24.1725 26.9232 24.1286 26.9536C23.8286 27.1547 23.5259 27.3518 23.2229 27.5483C22.3962 28.0845 21.5752 28.6285 20.7579 29.1787C20.7198 29.2043 20.6817 29.2299 20.6423 29.2563C20.5712 29.3041 20.5001 29.352 20.4291 29.4C20.3819 29.4317 20.3819 29.4317 20.3338 29.4641C20.3066 29.4824 20.2794 29.5007 20.2513 29.5196C19.9955 29.6796 19.7721 29.6877 19.4727 29.6559C19.2702 29.5627 19.1188 29.4309 19.0358 29.2227C19.0113 29.0247 19.0161 28.8281 19.0195 28.6289C19.0199 28.5682 19.0203 28.5076 19.0205 28.4469C19.0212 28.3166 19.0223 28.1863 19.0239 28.0559C19.0262 27.8494 19.0269 27.6429 19.0273 27.4364C19.0286 26.8493 19.0314 26.2621 19.0374 25.675C19.0407 25.3505 19.0422 25.026 19.0419 24.7015C19.0418 24.5301 19.0426 24.3587 19.0456 24.1873C19.0994 23.4078 19.0994 23.4078 18.8264 22.716C18.7292 22.6214 18.6216 22.5441 18.5114 22.4652C18.4418 22.3859 18.374 22.3048 18.3093 22.2216C18.1841 22.0675 18.0559 21.9183 17.9214 21.7722C17.7862 21.6251 17.657 21.4749 17.5309 21.32C17.3965 21.1553 17.2577 20.9967 17.113 20.8408C16.9332 20.6472 16.7647 20.4471 16.598 20.2423C16.5031 20.1284 16.405 20.0187 16.3046 19.9095C16.1333 19.7233 15.9728 19.5301 15.8129 19.3342C15.6864 19.1827 15.5531 19.0381 15.4195 18.8927C15.3186 18.7803 15.2228 18.6648 15.1274 18.5477C14.993 18.383 14.8543 18.2244 14.7095 18.0685C14.5298 17.8749 14.3612 17.6748 14.1945 17.47C14.0997 17.3561 14.0015 17.2464 13.9011 17.1372C13.7299 16.951 13.5694 16.7578 13.4095 16.5619C13.314 16.4475 13.2154 16.3373 13.1145 16.2276C12.9416 16.0395 12.7787 15.845 12.618 15.6467C12.5347 15.5466 12.4477 15.4528 12.358 15.3585C12.1142 15.0838 11.9945 14.7299 12.0002 14.3649C12.0398 13.9775 12.1814 13.5906 12.4809 13.3253C12.7897 13.1127 13.0095 13.0168 13.3859 13.0163Z" fill="white"/>
</svg>
