<svg width="43" height="43" viewBox="0 0 43 43" fill="none" xmlns="http://www.w3.org/2000/svg">
<path d="M0 4.27586C0 1.91437 1.91437 0 4.27586 0H38.7241C41.0856 0 43 1.91437 43 4.27586V38.7241C43 41.0856 41.0856 43 38.7241 43H4.27586C1.91437 43 0 41.0856 0 38.7241V4.27586Z" fill="#D9D9D9"/>
<path d="M12.3859 14.0164C12.4303 14.0163 12.4303 14.0163 12.4756 14.0161C12.5752 14.0158 12.6748 14.0159 12.7743 14.0159C12.8463 14.0157 12.9182 14.0156 12.9902 14.0154C13.1882 14.0149 13.3863 14.0148 13.5843 14.0147C13.7978 14.0145 14.0113 14.0141 14.2247 14.0137C14.7404 14.0128 15.2561 14.0124 15.7719 14.012C16.0147 14.0118 16.2575 14.0116 16.5003 14.0113C17.3074 14.0106 18.1145 14.01 18.9216 14.0096C19.131 14.0096 19.3405 14.0095 19.55 14.0094C19.602 14.0094 19.6541 14.0094 19.7077 14.0093C20.5512 14.009 21.3947 14.0079 22.2382 14.0064C23.104 14.005 23.9699 14.0042 24.8357 14.0041C25.3219 14.004 25.8081 14.0036 26.2943 14.0025C26.7083 14.0015 27.1224 14.0012 27.5364 14.0016C27.7477 14.0018 27.9589 14.0017 28.1701 14.0008C28.3636 14.0001 28.5571 14.0001 28.7506 14.0008C28.8204 14.0009 28.8903 14.0007 28.9602 14.0002C29.4514 13.9968 29.8751 14.0363 30.2483 14.3858C30.5248 14.6942 30.6577 15.0552 30.6648 15.4681C30.6278 16.032 30.33 16.3871 29.9567 16.7821C29.8434 16.9026 29.7386 17.0284 29.6351 17.1575C29.5027 17.3225 29.3658 17.4809 29.2227 17.6367C29.043 17.8326 28.8744 18.035 28.7077 18.242C28.5819 18.3949 28.449 18.5405 28.3158 18.687C28.2149 18.8008 28.1191 18.9175 28.0237 19.0359C27.8551 19.245 27.677 19.4431 27.4954 19.6409C27.3547 19.798 27.2231 19.9616 27.0909 20.1259C26.996 20.2412 26.8978 20.3521 26.7974 20.4625C26.6613 20.6122 26.5312 20.7651 26.4041 20.9225C26.2463 21.1181 26.0814 21.305 25.9124 21.4909C25.8115 21.6047 25.7156 21.7214 25.6203 21.8398C25.4516 22.0489 25.2736 22.247 25.092 22.4448C24.9513 22.6019 24.8196 22.7655 24.6874 22.9298C24.562 23.0822 24.4295 23.2274 24.2967 23.3734C24.1554 23.5328 24.0222 23.6983 23.889 23.8645C23.804 23.9674 23.804 23.9674 23.7342 24.0188C23.6382 24.1443 23.6552 24.2795 23.6568 24.4313C23.6567 24.4651 23.6565 24.4989 23.6563 24.5337C23.656 24.6071 23.6561 24.6804 23.6563 24.7538C23.6567 24.87 23.6563 24.9862 23.6556 25.1024C23.6539 25.4328 23.6538 25.7632 23.6539 26.0937C23.6539 26.2958 23.6531 26.4979 23.6517 26.7C23.6513 26.8143 23.6518 26.9286 23.6523 27.0429C23.652 27.1134 23.6515 27.1838 23.651 27.2542C23.6514 27.2858 23.6519 27.3175 23.6523 27.35C23.6492 27.5713 23.5915 27.6952 23.4544 27.8666C23.363 27.9486 23.363 27.9486 23.2578 28.0221C23.2152 28.052 23.1725 28.0818 23.1286 28.1126C22.8286 28.316 22.5259 28.5153 22.2229 28.7141C21.3962 29.2564 20.5752 29.8066 19.7579 30.3631C19.7198 30.389 19.6817 30.4149 19.6423 30.4416C19.5712 30.4899 19.5001 30.5384 19.4291 30.5869C19.3819 30.619 19.3819 30.619 19.3338 30.6517C19.3066 30.6702 19.2794 30.6888 19.2513 30.7079C18.9955 30.8697 18.7721 30.8779 18.4727 30.8457C18.2702 30.7514 18.1188 30.6181 18.0358 30.4076C18.0113 30.2073 18.0161 30.0085 18.0195 29.807C18.0199 29.7456 18.0203 29.6843 18.0205 29.623C18.0212 29.4911 18.0223 29.3593 18.0239 29.2275C18.0262 29.0187 18.0269 28.8098 18.0273 28.6009C18.0286 28.0071 18.0314 27.4133 18.0374 26.8195C18.0407 26.4913 18.0422 26.1631 18.0419 25.8349C18.0418 25.6615 18.0426 25.4881 18.0456 25.3147C18.0994 24.5265 18.0994 24.5265 17.8264 23.8267C17.7292 23.7311 17.6216 23.6529 17.5114 23.5731C17.4418 23.4929 17.374 23.4109 17.3093 23.3267C17.1841 23.1708 17.0559 23.02 16.9214 22.8721C16.7862 22.7233 16.657 22.5715 16.5309 22.4149C16.3965 22.2482 16.2577 22.0879 16.113 21.9302C15.9332 21.7344 15.7647 21.5319 15.598 21.3249C15.5031 21.2096 15.405 21.0987 15.3046 20.9883C15.1333 20.7999 14.9728 20.6045 14.8129 20.4064C14.6864 20.2532 14.5531 20.1069 14.4195 19.9599C14.3186 19.8461 14.2228 19.7294 14.1274 19.611C13.993 19.4443 13.8543 19.284 13.7095 19.1263C13.5298 18.9305 13.3612 18.728 13.1945 18.521C13.0997 18.4057 13.0015 18.2948 12.9011 18.1844C12.7299 17.996 12.5694 17.8006 12.4095 17.6025C12.314 17.4868 12.2154 17.3753 12.1145 17.2643C11.9416 17.0741 11.7787 16.8774 11.618 16.6768C11.5347 16.5756 11.4477 16.4807 11.358 16.3854C11.1142 16.1075 10.9945 15.7496 11.0002 15.3805C11.0398 14.9887 11.1814 14.5974 11.4809 14.329C11.7897 14.114 12.0095 14.017 12.3859 14.0164Z" fill="#343434"/>
</svg>
