<svg width="21" height="16" viewBox="0 0 21 16" fill="none" xmlns="http://www.w3.org/2000/svg">
<path d="M7.14724 4.99961C7.198 4.99937 7.24876 4.99913 7.30106 4.99889C7.44082 4.99825 7.58056 4.99834 7.72032 4.99855C7.87149 4.99866 8.02265 4.99809 8.17382 4.99761C8.46952 4.99679 8.76521 4.99661 9.06091 4.99668C9.30135 4.99673 9.54179 4.99658 9.78223 4.99629C9.85162 4.99621 9.92101 4.99613 9.9904 4.99604C10.0422 4.99598 10.0422 4.99598 10.0951 4.99592C10.7475 4.99518 11.4 4.99522 12.0525 4.99549C12.6488 4.99571 13.2451 4.9949 13.8413 4.9936C14.4544 4.99228 15.0674 4.99169 15.6805 4.99187C16.0244 4.99196 16.3682 4.99176 16.7121 4.99078C17.0048 4.98996 17.2975 4.98982 17.5902 4.99056C17.7394 4.99092 17.8886 4.99096 18.0378 4.99015C18.1998 4.98928 18.3619 4.98994 18.524 4.99074C18.5706 4.99025 18.6173 4.98976 18.6654 4.98926C19.0584 4.99338 19.3997 5.08872 19.6935 5.35925C19.9803 5.67461 20.0463 5.99496 20.0375 6.41278C20.023 6.69738 19.9329 6.9638 19.8498 7.23425C19.8293 7.30332 19.8088 7.37241 19.7884 7.44151C19.7404 7.60393 19.692 7.7662 19.6433 7.92841C19.5435 8.26167 19.446 8.59557 19.3485 8.9295C19.3104 9.06028 19.2722 9.19105 19.234 9.32182C19.2243 9.35509 19.2146 9.38836 19.2046 9.42264C19.1345 9.6626 19.0642 9.90249 18.9937 10.1423C18.7935 10.8243 18.5943 11.5065 18.3983 12.1897C18.3372 12.4025 18.2758 12.6152 18.2145 12.8279C18.1563 13.03 18.0985 13.2322 18.041 13.4344C18.0052 13.56 17.969 13.6854 17.9327 13.8108C17.9162 13.8683 17.8998 13.926 17.8835 13.9836C17.6826 14.6967 17.3853 15.2729 16.7285 15.6557C16.3151 15.8758 15.919 15.8856 15.4611 15.8838C15.3981 15.8838 15.3351 15.8839 15.2722 15.884C15.0997 15.8842 14.9273 15.8838 14.7548 15.8835C14.5686 15.8831 14.3824 15.8832 14.1962 15.8833C13.8738 15.8833 13.5514 15.8831 13.229 15.8826C12.7628 15.882 12.2967 15.8818 11.8306 15.8817C11.0742 15.8815 10.3179 15.881 9.5616 15.8803C8.82699 15.8796 8.09239 15.879 7.35778 15.8787C7.31248 15.8787 7.26718 15.8786 7.22052 15.8786C6.99328 15.8785 6.76603 15.8784 6.53879 15.8783C4.65418 15.8775 2.76956 15.8761 0.884951 15.8744C0.884951 15.8615 0.884951 15.8486 0.884951 15.8353C0.942279 15.8254 0.942279 15.8254 1.00076 15.8152C1.29155 15.7624 1.56201 15.7081 1.82245 15.5619C1.8655 15.5379 1.8655 15.5379 1.90943 15.5135C2.55408 15.1203 2.76051 14.474 2.95633 13.7873C2.97451 13.7247 2.99273 13.662 3.01099 13.5994C3.05997 13.431 3.10847 13.2625 3.15688 13.094C3.20819 12.9157 3.25996 12.7376 3.3117 12.5594C3.39776 12.2628 3.48358 11.9662 3.56924 11.6695C3.69166 11.2456 3.81482 10.8218 3.93823 10.3982C3.95772 10.3312 3.97721 10.2643 3.9967 10.1974C4.08222 9.90378 4.16779 9.61019 4.25344 9.31662C4.29929 9.15941 4.34513 9.00219 4.39096 8.84497C4.3998 8.81466 4.40864 8.78436 4.41774 8.75314C4.52313 8.39163 4.62765 8.0299 4.73077 7.66774C4.78399 7.48103 4.83766 7.29445 4.89139 7.10789C4.91526 7.02457 4.93889 6.94118 4.96228 6.85772C5.1662 6.13009 5.3913 5.5951 6.06256 5.19385C6.41903 5.03094 6.75897 4.99788 7.14724 4.99961Z" fill="#343434"/>
<path d="M1.61156 0.00952816C1.65613 0.00930511 1.7007 0.00908182 1.74661 0.00885201C1.79536 0.00880834 1.8441 0.00876539 1.89432 0.0087204C1.97152 0.00842949 1.97152 0.00842972 2.05028 0.00813293C2.19145 0.00762096 2.33263 0.00736812 2.47381 0.00719452C2.56217 0.00707985 2.65054 0.00691967 2.7389 0.00674534C3.01584 0.00621117 3.29278 0.00583381 3.56972 0.00568295C3.8885 0.0055083 4.20728 0.00482455 4.52606 0.00369072C4.77298 0.00284324 5.01991 0.0024515 5.26683 0.00239944C5.41404 0.0023587 5.56125 0.00213273 5.70845 0.00143051C5.84722 0.000781463 5.98598 0.000704965 6.12475 0.00104523C6.19921 0.00108913 6.27367 0.000557065 6.34812 0C6.97979 0.0030236 7.47841 0.186339 7.93955 0.621246C8.10027 0.787198 8.24247 0.966219 8.38495 1.14783C8.50115 1.29188 8.61853 1.43492 8.73651 1.57751C8.77707 1.62752 8.77707 1.62752 8.81845 1.67853C8.84459 1.70965 8.87072 1.74077 8.89765 1.77283C8.93163 1.81392 8.93163 1.81392 8.96631 1.85583C9.15884 2.02634 9.35836 2.06091 9.60899 2.06105C9.63652 2.06123 9.66405 2.0614 9.69241 2.06159C9.78395 2.06204 9.87547 2.06167 9.96702 2.06129C10.0329 2.06146 10.0989 2.06167 10.1648 2.06193C10.3064 2.06239 10.4481 2.06249 10.5897 2.06231C10.814 2.06204 11.0383 2.06266 11.2626 2.06342C11.7389 2.06489 12.2153 2.06539 12.6916 2.0658C13.2054 2.06623 13.7191 2.06683 14.2329 2.06856C14.4555 2.06927 14.6782 2.06943 14.9008 2.06915C15.0397 2.06909 15.1787 2.06951 15.3176 2.07006C15.3817 2.07022 15.4458 2.07017 15.5098 2.06991C16.1191 2.06762 16.6354 2.16355 17.0989 2.58719C17.4289 2.95676 17.5395 3.34044 17.5305 3.82117C17.5301 3.8572 17.5298 3.89322 17.5294 3.93034C17.5285 4.01847 17.5272 4.10658 17.5256 4.1947C17.5033 4.19476 17.4811 4.19481 17.4581 4.19486C16.137 4.19802 14.8159 4.20157 13.4948 4.20564C13.336 4.20613 13.1771 4.20662 13.0183 4.2071C12.9867 4.2072 12.955 4.20729 12.9225 4.20739C12.4113 4.20894 11.9002 4.21022 11.3891 4.2114C10.8641 4.21262 10.3392 4.21413 9.81418 4.2159C9.49059 4.21699 9.16701 4.21785 8.84342 4.21842C8.62112 4.21884 8.39882 4.21954 8.17653 4.22045C8.04853 4.22097 7.92054 4.22133 7.79254 4.22143C6.74522 4.22241 5.84499 4.27389 5.0416 5.03271C4.78088 5.30822 4.5984 5.59949 4.47046 5.95389C4.45896 5.9855 4.44747 6.01712 4.43562 6.04969C4.26788 6.52314 4.13518 7.00801 3.99764 7.49086C3.95595 7.63694 3.91393 7.78291 3.87191 7.92889C3.86327 7.95891 3.85463 7.98892 3.84573 8.01985C3.82799 8.08148 3.81025 8.1431 3.7925 8.20473C3.76527 8.29937 3.73807 8.39401 3.71088 8.48866C3.57587 8.95838 3.43947 9.42768 3.30225 9.89676C3.29226 9.9309 3.28228 9.96503 3.27199 10.0002C3.16158 10.3775 3.05093 10.7548 2.94019 11.132C2.91077 11.2323 2.88136 11.3325 2.85195 11.4327C2.8327 11.4983 2.81345 11.5639 2.7942 11.6294C2.68327 12.0074 2.57315 12.3855 2.46478 12.7642C2.41119 12.9514 2.35724 13.1384 2.30326 13.3255C2.27936 13.4087 2.25566 13.492 2.23217 13.5754C1.9301 14.6476 1.9301 14.6476 1.43183 14.9369C1.12834 15.0705 0.819685 15.1145 0.506533 14.993C0.280305 14.8819 0.122692 14.6998 0.0255756 14.4681C0.0156479 14.3649 0.015648 14.3649 0.0154171 14.2446C0.0151411 14.1988 0.014866 14.1529 0.0145817 14.1056C0.014676 14.0552 0.0147687 14.0047 0.0148659 13.9527C0.014692 13.8986 0.0144844 13.8445 0.014246 13.7904C0.0136914 13.6416 0.013628 13.4928 0.0136452 13.3439C0.0135808 13.1835 0.0130714 13.023 0.0126228 12.8626C0.0117297 12.5115 0.0114203 12.1605 0.0112228 11.8095C0.0110956 11.5903 0.0108412 11.3711 0.0105591 11.1518C0.00979462 10.5447 0.00915242 9.93758 0.00903893 9.33045C0.0090316 9.29159 0.00902549 9.25272 0.00901794 9.21268C0.00900364 9.13389 0.00898818 9.05511 0.00897408 8.97632C0.00896693 8.93721 0.00896045 8.8981 0.00895309 8.85781C0.00894604 8.81865 0.00893938 8.77949 0.00893211 8.73915C0.00879386 8.10507 0.00773823 7.471 0.00627708 6.83692C0.00478856 6.18575 0.00403439 5.53457 0.0040226 4.88339C0.00399978 4.51786 0.00366758 4.15233 0.00253677 3.78679C0.00157797 3.47543 0.0012957 3.16407 0.00188255 2.8527C0.00216212 2.69394 0.00213135 2.53519 0.00124168 2.37643C0.000433604 2.23082 0.000542681 2.08525 0.00135422 1.93964C0.00155391 1.86256 0.000798882 1.78548 0 1.7084C0.00471913 1.20424 0.183024 0.815254 0.523165 0.44989C0.813728 0.169554 1.20907 0.0107363 1.61156 0.00952816Z" fill="#343434"/>
<path d="M7.14724 4.99961C7.198 4.99937 7.24876 4.99913 7.30106 4.99889C7.44082 4.99825 7.58056 4.99834 7.72032 4.99855C7.87149 4.99866 8.02265 4.99809 8.17382 4.99761C8.46952 4.99679 8.76521 4.99661 9.06091 4.99668C9.30135 4.99673 9.54179 4.99658 9.78223 4.99629C9.85162 4.99621 9.92101 4.99613 9.9904 4.99604C10.0422 4.99598 10.0422 4.99598 10.0951 4.99592C10.7475 4.99518 11.4 4.99522 12.0525 4.99549C12.6488 4.99571 13.2451 4.9949 13.8413 4.9936C14.4544 4.99228 15.0674 4.99169 15.6805 4.99187C16.0244 4.99196 16.3682 4.99176 16.7121 4.99078C17.0048 4.98996 17.2975 4.98982 17.5902 4.99056C17.7394 4.99092 17.8886 4.99096 18.0378 4.99015C18.1998 4.98928 18.3619 4.98994 18.524 4.99074C18.5706 4.99025 18.6173 4.98976 18.6654 4.98926C19.0584 4.99338 19.3997 5.08872 19.6935 5.35925C19.9803 5.67461 20.0463 5.99496 20.0375 6.41278C20.023 6.69738 19.9329 6.9638 19.8498 7.23425C19.8293 7.30332 19.8088 7.37241 19.7884 7.44151C19.7404 7.60393 19.692 7.7662 19.6433 7.92841C19.5435 8.26167 19.446 8.59557 19.3485 8.9295C19.3104 9.06028 19.2722 9.19105 19.234 9.32182C19.2243 9.35509 19.2146 9.38836 19.2046 9.42264C19.1345 9.6626 19.0642 9.90249 18.9937 10.1423C18.7935 10.8243 18.5943 11.5065 18.3983 12.1897C18.3372 12.4025 18.2758 12.6152 18.2145 12.8279C18.1563 13.03 18.0985 13.2322 18.041 13.4344C18.0052 13.56 17.969 13.6854 17.9327 13.8108C17.9162 13.8683 17.8998 13.926 17.8835 13.9836C17.6826 14.6967 17.3853 15.2729 16.7285 15.6557C16.3151 15.8758 15.919 15.8856 15.4611 15.8838C15.3981 15.8838 15.3351 15.8839 15.2722 15.884C15.0997 15.8842 14.9273 15.8838 14.7548 15.8835C14.5686 15.8831 14.3824 15.8832 14.1962 15.8833C13.8738 15.8833 13.5514 15.8831 13.229 15.8826C12.7628 15.882 12.2967 15.8818 11.8306 15.8817C11.0742 15.8815 10.3179 15.881 9.5616 15.8803C8.82699 15.8796 8.09239 15.879 7.35778 15.8787C7.31248 15.8787 7.26718 15.8786 7.22052 15.8786C6.99328 15.8785 6.76603 15.8784 6.53879 15.8783C4.65418 15.8775 2.76956 15.8761 0.884951 15.8744C0.884951 15.8615 0.884951 15.8486 0.884951 15.8353C0.942279 15.8254 0.942279 15.8254 1.00076 15.8152C1.29155 15.7624 1.56201 15.7081 1.82245 15.5619C1.8655 15.5379 1.8655 15.5379 1.90943 15.5135C2.55408 15.1203 2.76051 14.474 2.95633 13.7873C2.97451 13.7247 2.99273 13.662 3.01099 13.5994C3.05997 13.431 3.10847 13.2625 3.15688 13.094C3.20819 12.9157 3.25996 12.7376 3.3117 12.5594C3.39776 12.2628 3.48358 11.9662 3.56924 11.6695C3.69166 11.2456 3.81482 10.8218 3.93823 10.3982C3.95772 10.3312 3.97721 10.2643 3.9967 10.1974C4.08222 9.90378 4.16779 9.61019 4.25344 9.31662C4.29929 9.15941 4.34513 9.00219 4.39096 8.84497C4.3998 8.81466 4.40864 8.78436 4.41774 8.75314C4.52313 8.39163 4.62765 8.0299 4.73077 7.66774C4.78399 7.48103 4.83766 7.29445 4.89139 7.10789C4.91526 7.02457 4.93889 6.94118 4.96228 6.85772C5.1662 6.13009 5.3913 5.5951 6.06256 5.19385C6.41903 5.03094 6.75897 4.99788 7.14724 4.99961Z" fill="#343434"/>
<path d="M1.61156 0.00952816C1.65613 0.00930511 1.7007 0.00908182 1.74661 0.00885201C1.79536 0.00880834 1.8441 0.00876539 1.89432 0.0087204C1.97152 0.00842949 1.97152 0.00842972 2.05028 0.00813293C2.19145 0.00762096 2.33263 0.00736812 2.47381 0.00719452C2.56217 0.00707985 2.65054 0.00691967 2.7389 0.00674534C3.01584 0.00621117 3.29278 0.00583381 3.56972 0.00568295C3.8885 0.0055083 4.20728 0.00482455 4.52606 0.00369072C4.77298 0.00284324 5.01991 0.0024515 5.26683 0.00239944C5.41404 0.0023587 5.56125 0.00213273 5.70845 0.00143051C5.84722 0.000781463 5.98598 0.000704965 6.12475 0.00104523C6.19921 0.00108913 6.27367 0.000557065 6.34812 0C6.97979 0.0030236 7.47841 0.186339 7.93955 0.621246C8.10027 0.787198 8.24247 0.966219 8.38495 1.14783C8.50115 1.29188 8.61853 1.43492 8.73651 1.57751C8.77707 1.62752 8.77707 1.62752 8.81845 1.67853C8.84459 1.70965 8.87072 1.74077 8.89765 1.77283C8.93163 1.81392 8.93163 1.81392 8.96631 1.85583C9.15884 2.02634 9.35836 2.06091 9.60899 2.06105C9.63652 2.06123 9.66405 2.0614 9.69241 2.06159C9.78395 2.06204 9.87547 2.06167 9.96702 2.06129C10.0329 2.06146 10.0989 2.06167 10.1648 2.06193C10.3064 2.06239 10.4481 2.06249 10.5897 2.06231C10.814 2.06204 11.0383 2.06266 11.2626 2.06342C11.7389 2.06489 12.2153 2.06539 12.6916 2.0658C13.2054 2.06623 13.7191 2.06683 14.2329 2.06856C14.4555 2.06927 14.6782 2.06943 14.9008 2.06915C15.0397 2.06909 15.1787 2.06951 15.3176 2.07006C15.3817 2.07022 15.4458 2.07017 15.5098 2.06991C16.1191 2.06762 16.6354 2.16355 17.0989 2.58719C17.4289 2.95676 17.5395 3.34044 17.5305 3.82117C17.5301 3.8572 17.5298 3.89322 17.5294 3.93034C17.5285 4.01847 17.5272 4.10658 17.5256 4.1947C17.5033 4.19476 17.4811 4.19481 17.4581 4.19486C16.137 4.19802 14.8159 4.20157 13.4948 4.20564C13.336 4.20613 13.1771 4.20662 13.0183 4.2071C12.9867 4.2072 12.955 4.20729 12.9225 4.20739C12.4113 4.20894 11.9002 4.21022 11.3891 4.2114C10.8641 4.21262 10.3392 4.21413 9.81418 4.2159C9.49059 4.21699 9.16701 4.21785 8.84342 4.21842C8.62112 4.21884 8.39882 4.21954 8.17653 4.22045C8.04853 4.22097 7.92054 4.22133 7.79254 4.22143C6.74522 4.22241 5.84499 4.27389 5.0416 5.03271C4.78088 5.30822 4.5984 5.59949 4.47046 5.95389C4.45896 5.9855 4.44747 6.01712 4.43562 6.04969C4.26788 6.52314 4.13518 7.00801 3.99764 7.49086C3.95595 7.63694 3.91393 7.78291 3.87191 7.92889C3.86327 7.95891 3.85463 7.98892 3.84573 8.01985C3.82799 8.08148 3.81025 8.1431 3.7925 8.20473C3.76527 8.29937 3.73807 8.39401 3.71088 8.48866C3.57587 8.95838 3.43947 9.42768 3.30225 9.89676C3.29226 9.9309 3.28228 9.96503 3.27199 10.0002C3.16158 10.3775 3.05093 10.7548 2.94019 11.132C2.91077 11.2323 2.88136 11.3325 2.85195 11.4327C2.8327 11.4983 2.81345 11.5639 2.7942 11.6294C2.68327 12.0074 2.57315 12.3855 2.46478 12.7642C2.41119 12.9514 2.35724 13.1384 2.30326 13.3255C2.27936 13.4087 2.25566 13.492 2.23217 13.5754C1.9301 14.6476 1.9301 14.6476 1.43183 14.9369C1.12834 15.0705 0.819685 15.1145 0.506533 14.993C0.280305 14.8819 0.122692 14.6998 0.0255756 14.4681C0.0156479 14.3649 0.015648 14.3649 0.0154171 14.2446C0.0151411 14.1988 0.014866 14.1529 0.0145817 14.1056C0.014676 14.0552 0.0147687 14.0047 0.0148659 13.9527C0.014692 13.8986 0.0144844 13.8445 0.014246 13.7904C0.0136914 13.6416 0.013628 13.4928 0.0136452 13.3439C0.0135808 13.1835 0.0130714 13.023 0.0126228 12.8626C0.0117297 12.5115 0.0114203 12.1605 0.0112228 11.8095C0.0110956 11.5903 0.0108412 11.3711 0.0105591 11.1518C0.00979462 10.5447 0.00915242 9.93758 0.00903893 9.33045C0.0090316 9.29159 0.00902549 9.25272 0.00901794 9.21268C0.00900364 9.13389 0.00898818 9.05511 0.00897408 8.97632C0.00896693 8.93721 0.00896045 8.8981 0.00895309 8.85781C0.00894604 8.81865 0.00893938 8.77949 0.00893211 8.73915C0.00879386 8.10507 0.00773823 7.471 0.00627708 6.83692C0.00478856 6.18575 0.00403439 5.53457 0.0040226 4.88339C0.00399978 4.51786 0.00366758 4.15233 0.00253677 3.78679C0.00157797 3.47543 0.0012957 3.16407 0.00188255 2.8527C0.00216212 2.69394 0.00213135 2.53519 0.00124168 2.37643C0.000433604 2.23082 0.000542681 2.08525 0.00135422 1.93964C0.00155391 1.86256 0.000798882 1.78548 0 1.7084C0.00471913 1.20424 0.183024 0.815254 0.523165 0.44989C0.813728 0.169554 1.20907 0.0107363 1.61156 0.00952816Z" fill="#343434"/>
</svg>
